<?xml version="1.0" encoding="UTF-8"?>
<svg version="1.1" xmlns="http://www.w3.org/2000/svg" width="1536" height="1024">
<path d="M0 0 C506.88 0 1013.76 0 1536 0 C1536 337.92 1536 675.84 1536 1024 C1029.12 1024 522.24 1024 0 1024 C0 686.08 0 348.16 0 0 Z " fill="#FDFDFD" transform="translate(0,0)"/>
<path d="M0 0 C-7.29000106 15.02703048 -18.86908987 27.68470536 -30.08203125 39.8984375 C-31.81116582 41.79309004 -33.47009293 43.72829012 -35.125 45.6875 C-43.33010099 55.10318966 -52.43534178 63.97689841 -62 72 C-63.04557038 72.90735883 -64.08970075 73.81637826 -65.1328125 74.7265625 C-72.36952589 81.02221951 -79.76137159 87.02345061 -87.41748047 92.79980469 C-90.00365031 94.76117632 -92.56102023 96.75975528 -95.125 98.75 C-109.32853191 109.69420427 -123.90180859 120.10569487 -138.62158203 130.34033203 C-142.28240951 132.89486962 -145.92132224 135.48007718 -149.5625 138.0625 C-157.88519698 143.9537812 -166.30107773 149.70561758 -174.72607422 155.44921875 C-183.78367086 161.62635573 -192.80624984 167.84641794 -201.75 174.1875 C-207.41608102 178.20370476 -213.12961142 182.12591327 -218.92578125 185.953125 C-222.55815885 188.37163308 -226.15617238 190.83721239 -229.75 193.3125 C-230.42482422 193.77720703 -231.09964844 194.24191406 -231.79492188 194.72070312 C-234.54215535 196.61382041 -237.28827648 198.50854338 -240.03369141 200.40429688 C-247.09365893 205.27842599 -254.16388263 210.13155171 -261.3125 214.875 C-266.73942137 218.47639271 -272.12965371 222.1272974 -277.5 225.8125 C-298.75318979 240.38823361 -320.1361712 254.77472263 -341.5 269.1875 C-342.41120605 269.80238281 -343.32241211 270.41726563 -344.26123047 271.05078125 C-355.15272881 278.39964125 -366.0595602 285.72420007 -377 293 C-379.98221082 294.98758118 -382.96390817 296.9759308 -385.94555664 298.96435547 C-388.06374179 300.37602742 -390.18277926 301.78642099 -392.30249023 303.19580078 C-400.87969144 308.90090099 -409.4207731 314.65746294 -417.9460144 320.43984985 C-433.38987758 330.91205082 -448.89187643 341.29409728 -464.43017578 351.62548828 C-469.68377595 355.11911 -474.9324696 358.62009032 -480.18145752 362.12063599 C-482.96061283 363.97395708 -485.74009001 365.82679523 -488.51953125 367.6796875 C-489.59412598 368.39608398 -490.6687207 369.11248047 -491.77587891 369.85058594 C-565.125 418.75 -565.125 418.75 -566.94775391 419.96508789 C-568.09857042 420.73235273 -569.24928817 421.49976573 -570.39990234 422.26733398 C-574.00634246 424.67280235 -577.61569743 427.07383434 -581.2265625 429.47265625 C-582.14993408 430.0867334 -583.07330566 430.70081055 -584.0246582 431.33349609 C-585.82202676 432.52880363 -587.61999614 433.72320845 -589.41870117 434.91650391 C-594.55982418 438.33732616 -599.64323017 441.8274711 -604.68237305 445.39697266 C-607.08433441 447.05833137 -609.5283059 448.63214004 -612 450.1875 C-616.97000054 453.31831955 -621.86615078 456.54975393 -626.75 459.8125 C-627.91390259 460.59004639 -627.91390259 460.59004639 -629.10131836 461.38330078 C-632.06946078 463.36782358 -635.03631909 465.35425625 -638.00244141 467.34179688 C-641.68293611 469.80749088 -645.36810705 472.26585161 -649.06103516 474.71289062 C-650.41655905 475.61270452 -651.77025511 476.51527533 -653.12255859 477.41992188 C-671.96648805 490.0076166 -689.15750123 497.15738912 -712.125 497.25 C-714.00832031 497.2809375 -714.00832031 497.2809375 -715.9296875 497.3125 C-724.09802151 497.3463935 -731.19114178 496.35143465 -739 494 C-740.52436667 493.58326892 -742.04907555 493.16778638 -743.57421875 492.75390625 C-744.94649586 492.36087935 -746.31761616 491.96378903 -747.6875 491.5625 C-748.76922485 491.24599487 -748.76922485 491.24599487 -749.87280273 490.9230957 C-755.13507506 489.34494777 -760.06079869 487.42469882 -765 485 C-765 484.34 -765 483.68 -765 483 C-762.93066406 481.52636719 -762.93066406 481.52636719 -760.015625 479.796875 C-758.9445752 479.15306885 -757.87352539 478.5092627 -756.77001953 477.84594727 C-756.19592346 477.50443634 -755.62182739 477.16292542 -755.03033447 476.81106567 C-742.62232273 469.41598596 -730.68023375 461.50526603 -719 453 C-718.39494629 452.56075195 -717.78989258 452.12150391 -717.16650391 451.66894531 C-713.73457403 449.16664206 -710.35279211 446.60717855 -707 444 C-706.09378906 443.29875 -705.18757813 442.5975 -704.25390625 441.875 C-699.09196616 437.77473553 -694.18293741 433.44677155 -689.4375 428.875 C-688.92445313 428.39635498 -688.41140625 427.91770996 -687.8828125 427.42456055 C-684.2044455 423.78895084 -683.03645009 420.9185383 -682 416 C-690.3083475 415.48652273 -696.98264494 416.79528801 -704.8125 419.5 C-705.88910889 419.85803711 -706.96571777 420.21607422 -708.07495117 420.58496094 C-717.17880499 423.64070667 -726.20579119 426.91224175 -735.2109375 430.24609375 C-739.92720136 431.98769647 -744.67176948 433.59461011 -749.46484375 435.11328125 C-752.12560885 436.00823538 -752.12560885 436.00823538 -755.12109375 437.36328125 C-760.01559089 439.49589775 -765.07525108 441.15233353 -770.125 442.875 C-777.45466752 445.39629973 -784.71670252 448.00273632 -791.9296875 450.83984375 C-797.88510135 453.09017188 -803.94773965 455.0280856 -810 457 C-810.99 457.33 -811.98 457.66 -813 458 C-813 457.34 -813 456.68 -813 456 C-811.3137207 454.6940918 -811.3137207 454.6940918 -808.92578125 453.19921875 C-808.04196777 452.64129639 -807.1581543 452.08337402 -806.24755859 451.50854492 C-804.79470459 450.60712769 -804.79470459 450.60712769 -803.3125 449.6875 C-801.81323975 448.74644409 -801.81323975 448.74644409 -800.28369141 447.78637695 C-797.19372975 445.85010156 -794.09746184 443.92424889 -791 442 C-789.28243401 440.92727236 -787.56497894 439.85436709 -785.84765625 438.78125 C-775.30530149 432.21235278 -764.68629274 425.77106809 -754.06021118 419.33898926 C-745.81179312 414.34400918 -737.60401689 409.29166854 -729.47412109 404.10522461 C-723.02927355 399.99417665 -716.51543402 395.99798849 -710 392 C-707.98548382 390.76073077 -705.97115619 389.521155 -703.95703125 388.28125 C-702.95953857 387.66741455 -701.9620459 387.0535791 -700.93432617 386.42114258 C-698.77170638 385.09028662 -696.60911033 383.75939208 -694.4465332 382.4284668 C-688.7227043 378.90586545 -682.99849674 375.3838829 -677.2734375 371.86328125 C-675.07810411 370.51305479 -672.88279143 369.16279468 -670.6875 367.8125 C-669.60750732 367.14831055 -668.52751465 366.48412109 -667.41479492 365.79980469 C-661.51332012 362.16854048 -655.61949212 358.5253715 -649.7331543 354.86962891 C-642.15091865 350.16116207 -634.54061917 345.5090749 -626.875 340.9375 C-618.00665784 335.6446564 -609.27365588 330.156746 -600.55615234 324.62011719 C-585.87582551 315.3155662 -571.08551056 306.1990964 -556.2175293 297.19873047 C-547.55065899 291.95098133 -538.92408312 286.64113828 -530.31640625 281.296875 C-521.01807511 275.52465058 -511.68837236 269.80313582 -502.36572266 264.0703125 C-498.97625834 261.98539611 -495.5876094 259.89916079 -492.19921875 257.8125 C-482.10306062 251.59548073 -472.00459772 245.38267541 -461.88232422 239.20825195 C-456.54972 235.95316894 -451.22922704 232.67872362 -445.91088867 229.40039062 C-434.22760787 222.1989271 -422.51724267 215.04460572 -410.77783203 207.93505859 C-404.25351032 203.982593 -397.74710198 200.00267938 -391.25317383 196.00048828 C-385.76471389 192.62544583 -380.25809198 189.28037213 -374.75 185.9375 C-374.15216705 185.57449799 -373.55433411 185.21149597 -372.93838501 184.8374939 C-364.37055221 179.636004 -355.78641321 174.46249539 -347.1875 169.3125 C-335.42332097 162.26531857 -323.69633225 155.15920578 -312 148 C-311.02321289 147.40316406 -310.04642578 146.80632812 -309.04003906 146.19140625 C-306.14922073 144.4232635 -303.26160326 142.65001399 -300.375 140.875 C-299.50391602 140.34245605 -298.63283203 139.80991211 -297.73535156 139.26123047 C-289.71640846 134.95050223 -289.71640846 134.95050223 -285.1875 127.75 C-285.125625 126.8425 -285.06375 125.935 -285 125 C-291.7348895 121.45638101 -298.70646944 120.8909981 -306.1875 120 C-307.54167985 119.82943474 -308.89568355 119.65746542 -310.24951172 119.48413086 C-312.93559825 119.14061638 -315.6220648 118.80051319 -318.30908203 118.46435547 C-375.36799788 111.28575658 -375.36799788 111.28575658 -394 92 C-396.8521546 87.72176811 -396.59774799 84.01793708 -396 79 C-392.69242565 71.33244129 -384.98609108 67.17940393 -377.578125 64.0703125 C-369.54026505 60.89359524 -361.69330458 58.30801171 -353.0546875 57.38671875 C-350.57774004 57.073141 -348.42934222 56.59281841 -346.03125 55.9609375 C-339.62128887 54.4896119 -333.16344667 54.82593395 -326.625 54.9375 C-324.11724421 54.97187026 -321.60942601 55.00202526 -319.1015625 55.02734375 C-317.45148193 55.05429321 -317.45148193 55.05429321 -315.76806641 55.08178711 C-312.91104436 55.13038791 -312.91104436 55.13038791 -310 54 C-307.93010227 53.90476206 -305.85724277 53.86926895 -303.78515625 53.8671875 C-302.54056641 53.86589844 -301.29597656 53.86460937 -300.01367188 53.86328125 C-298.70978516 53.86714844 -297.40589844 53.87101562 -296.0625 53.875 C-294.79341797 53.87113281 -293.52433594 53.86726563 -292.21679688 53.86328125 C-286.43598633 53.86921333 -280.72574144 53.96396586 -274.96875 54.5078125 C-268.12037478 55.15119163 -261.31009257 55.07185146 -254.4375 55 C-246.75213111 54.91990236 -239.20648588 54.96102398 -231.55786133 55.75097656 C-227.41448415 56.15435966 -223.28572411 56.30153617 -219.125 56.375 C-218.32964844 56.41238281 -217.53429687 56.44976562 -216.71484375 56.48828125 C-209.06185625 56.59778346 -202.9653269 53.94480776 -196 51 C-193.40264266 49.95473032 -190.79690926 48.93101726 -188.19140625 47.90625 C-187.50622925 47.63507858 -186.82105225 47.36390717 -186.1151123 47.08451843 C-157.23197404 35.65392243 -127.98348922 25.17959622 -98 17 C-96.90703613 16.69868164 -95.81407227 16.39736328 -94.68798828 16.08691406 C-77.38380167 11.32259384 -60.23934944 7.02806935 -42.49804688 4.26513672 C-40.00269785 3.87542134 -37.5091723 3.47528223 -35.015625 3.07421875 C-23.37394463 1.22746108 -11.81411384 -0.23164929 0 0 Z " fill="#1076D1" transform="translate(1191,195)"/>
<path d="M0 0 C0.99559433 -0.00029205 1.99118866 -0.00058411 3.01695251 -0.00088501 C6.30134861 0.00050616 9.58551667 0.01605756 12.86987305 0.03173828 C15.14959082 0.03546916 17.4293102 0.03831578 19.70903015 0.04031372 C25.70464517 0.04794424 31.70016306 0.06758785 37.69573975 0.08972168 C43.81561977 0.11019256 49.93551552 0.1193181 56.05541992 0.12939453 C68.06001985 0.1508342 80.06454774 0.18496323 92.0690918 0.22705078 C90.66503324 3.12141181 89.19293331 5.47647741 87.12768555 7.94970703 C86.54841309 8.64765381 85.96914062 9.34560059 85.37231445 10.06469727 C84.75662598 10.79889893 84.1409375 11.53310059 83.5065918 12.28955078 C82.2317397 13.82331144 80.95700008 15.35716558 79.68237305 16.89111328 C79.06185059 17.63522461 78.44132812 18.37933594 77.80200195 19.14599609 C72.14647065 25.93773303 66.59257685 32.81058032 61.08081055 39.71923828 C58.28688735 43.20214836 55.45465981 46.65306643 52.6237793 50.10595703 C49.57564353 53.8264398 46.54047781 57.55744465 43.5065918 61.28955078 C42.94601074 61.97879639 42.38542969 62.66804199 41.80786133 63.37817383 C38.76670104 67.121725 35.74948103 70.88219864 32.7565918 74.66455078 C29.6783377 78.52846805 26.43885176 82.21147122 23.13549805 85.88330078 C17.20492449 92.60984924 11.68514216 99.69626831 6.0925293 106.70361328 C0.87174756 113.21447235 -4.44083881 119.64730829 -9.8059082 126.03955078 C-13.4795933 130.43200036 -17.04071839 134.89467392 -20.5559082 139.41455078 C-24.22734169 144.13240989 -28.02037695 148.66580497 -32.0402832 153.09423828 C-34.77499121 156.17926013 -37.31723973 159.40612017 -39.8762207 162.63720703 C-44.78227261 168.82107093 -49.79846504 174.91210547 -54.92163086 180.91699219 C-59.18637148 185.91583984 -63.33979947 190.97311933 -67.3684082 196.16455078 C-71.62155882 201.64181608 -76.04754798 206.93715548 -80.58422852 212.18115234 C-85.13747636 217.44630865 -89.54722838 222.81997511 -93.9309082 228.22705078 C-96.92627618 231.89751116 -99.92730535 235.56332734 -102.9309082 239.22705078 C-103.45346191 239.86449219 -103.97601562 240.50193359 -104.5144043 241.15869141 C-110.98828021 249.05086576 -117.48530165 256.9192754 -124.09838867 264.6953125 C-127.66001015 268.88894075 -131.14210337 273.143135 -134.61450195 277.41064453 C-137.20878086 280.5649027 -139.84697085 283.67908058 -142.4934082 286.78955078 C-145.69830012 290.55794017 -148.85778515 294.34951106 -151.9309082 298.22705078 C-155.00403629 302.10459685 -158.16364206 305.89604939 -161.3684082 309.66455078 C-165.44059306 314.45372336 -169.45572428 319.28322042 -173.42700195 324.15673828 C-181.23882768 333.73566967 -189.09063657 343.2793503 -197.09838867 352.6953125 C-200.66001015 356.88894075 -204.14210337 361.143135 -207.61450195 365.41064453 C-210.20878086 368.5649027 -212.84697085 371.67908058 -215.4934082 374.78955078 C-218.69830012 378.55794017 -221.85778515 382.34951106 -224.9309082 386.22705078 C-228.45974223 390.67958779 -232.1132015 395.01391057 -235.79418945 399.34033203 C-238.71095333 402.77276687 -241.58784246 406.23297893 -244.4309082 409.72705078 C-247.61650526 413.63997884 -250.84953672 417.50863967 -254.1184082 421.35205078 C-258.42228023 426.41278171 -262.65640329 431.52717242 -266.8684082 436.66455078 C-271.74909566 442.61517873 -276.70037872 448.49551645 -281.7277832 454.32250977 C-285.56665932 458.77936712 -289.30764627 463.30589472 -293.0168457 467.87158203 C-295.29710324 470.67769488 -297.60882233 473.45552893 -299.9309082 476.22705078 C-305.20841995 474.78328018 -309.05950519 472.36020172 -313.4934082 469.28955078 C-315.0940047 468.20218996 -316.6956433 467.11636217 -318.2980957 466.03173828 C-319.1859375 465.42942383 -320.0737793 464.82710937 -320.98852539 464.20654297 C-326.66307974 460.38897853 -332.39400578 456.65674394 -338.1184082 452.91455078 C-339.37616596 452.09167482 -340.63389702 451.26875806 -341.89160156 450.44580078 C-344.38368773 448.81538898 -346.87615459 447.1855614 -349.36889648 445.55615234 C-352.66052083 443.40435045 -355.95009166 441.24942341 -359.23950195 439.09423828 C-368.76013636 432.86285083 -378.31225653 426.69127277 -387.94775391 420.63891602 C-393.58097971 417.09554048 -399.17007348 413.48880456 -404.7434082 409.85205078 C-412.57057152 404.74595447 -420.43668054 399.70487776 -428.32592773 394.6953125 C-435.76621639 389.97063053 -443.19490233 385.22803534 -450.6184082 380.47705078 C-451.70017334 379.78506592 -452.78193848 379.09308105 -453.89648438 378.38012695 C-454.90171143 377.73664307 -455.90693848 377.09315918 -456.94262695 376.43017578 C-457.83425537 375.85944336 -458.72588379 375.28871094 -459.64453125 374.70068359 C-461.41680728 373.55840296 -463.17653112 372.3966355 -464.9309082 371.22705078 C-463.76002937 367.71441427 -462.82504446 367.11937418 -459.9309082 364.91455078 C-455.10695128 361.16564712 -450.38313381 357.315063 -445.6809082 353.41455078 C-440.34589433 348.9990419 -434.96599436 344.65821063 -429.4934082 340.41455078 C-424.53589068 336.56676899 -419.8440714 332.52147104 -415.2199707 328.27392578 C-412.34675801 325.70470487 -409.33399576 323.36820193 -406.27075195 321.03173828 C-401.7390665 317.53651511 -397.34969501 313.8631515 -392.9309082 310.22705078 C-387.40561055 305.69647389 -381.8717002 301.17680878 -376.32250977 296.67553711 C-370.02783662 291.56892637 -363.74873568 286.44430387 -357.4934082 281.28955078 C-356.79094971 280.71076172 -356.08849121 280.13197266 -355.36474609 279.53564453 C-351.76371922 276.56694695 -348.16600944 273.59430114 -344.5715332 270.61767578 C-337.44000485 264.71870777 -330.27106664 258.88877842 -322.96630859 253.20556641 C-318.39499945 249.63243748 -313.96195294 245.91390779 -309.54980469 242.14697266 C-303.99138931 237.40624717 -298.27927829 232.87281206 -292.5480957 228.34423828 C-287.85338641 224.6156428 -283.24014446 220.80734783 -278.6809082 216.91455078 C-273.61088885 212.58798437 -268.42481765 208.44201713 -263.16235352 204.3527832 C-259.16900399 201.23609004 -255.27819864 198.02188576 -251.4309082 194.72705078 C-246.39503014 190.41606886 -241.24422482 186.28234289 -236.01635742 182.20703125 C-231.59111156 178.75560998 -227.23194525 175.23231659 -222.8996582 171.66455078 C-220.65622207 169.82257164 -218.40658301 167.98987244 -216.1496582 166.16455078 C-209.18030249 160.52673181 -202.25884001 154.84589454 -195.43432617 149.03344727 C-191.60672844 145.78004857 -187.71184401 142.62737005 -183.7746582 139.50830078 C-180.04437595 136.51587656 -176.36525897 133.46321843 -172.6809082 130.41455078 C-166.78860095 125.54388834 -160.84095792 120.75837918 -154.81420898 116.05541992 C-150.46079263 112.6552927 -146.17274 109.18271766 -141.9074707 105.67236328 C-138.26029299 102.67612542 -134.59597281 99.70136042 -130.9309082 96.72705078 C-124.58553435 91.57500821 -118.25345773 86.40708753 -111.9309082 81.22705078 C-111.09946289 80.54771484 -110.26801758 79.86837891 -109.41137695 79.16845703 C-105.24896598 75.7673866 -101.09092583 72.36180556 -96.95043945 68.93408203 C-89.78277053 63.00467334 -82.58616924 57.13123493 -75.24682617 51.41552734 C-68.33880708 46.01611077 -61.60422922 40.40550361 -54.85083008 34.81494141 C-46.41630317 27.83908141 -37.9000604 20.96831431 -29.3293457 14.16064453 C-24.97882218 10.69731236 -20.69180598 7.22037059 -16.59887695 3.45361328 C-11.42612335 -0.35023831 -6.14927264 -0.04725017 0 0 Z " fill="#0954B2" transform="translate(1082.930908203125,358.77294921875)"/>
<path d="M0 0 C149.49 0 298.98 0 453 0 C453 0.66 453 1.32 453 2 C430.7109375 13.14453125 430.7109375 13.14453125 427.38793945 14.8059082 C425.11290712 15.94350634 422.8380066 17.08136815 420.56323242 18.21948242 C411.12022522 22.94337908 411.12022522 22.94337908 406.65234375 25.15625 C399.77753658 28.56577916 392.95565912 32.0623048 386.15869141 35.625 C376.10405933 40.89236524 365.99930405 45.98683758 355.73608398 50.83520508 C348.43851941 54.28912375 341.21178723 57.87068804 334 61.5 C325.10282426 65.972115 316.16954981 70.35073375 307.17578125 74.625 C298.59511032 78.70491029 290.04623564 82.84861569 281.5 87 C271.33253345 91.93762798 261.15489141 96.85157562 250.94995117 101.71142578 C245.21790386 104.44654507 239.50119019 107.21169821 233.79296875 109.99609375 C230.79951594 111.45580459 227.80603784 112.91546354 224.8125 114.375 C224.06689819 114.7386264 223.32129639 115.10225281 222.55310059 115.47689819 C211.08984806 121.0630525 199.57237314 126.51521688 187.96801758 131.80224609 C183.33075566 133.92649125 178.77675944 136.06909157 174.3515625 138.609375 C170.59186949 140.75487038 166.77009874 142.33991119 162.73535156 143.89257812 C157.32958445 146.08113218 152.11807858 148.70161994 146.875 151.25 C145.72773438 151.80429687 144.58046875 152.35859375 143.3984375 152.9296875 C140.59749724 154.28347529 137.79807213 155.64029684 135 157 C130.88925937 153.58364123 127.03668049 150.14995354 123.5 146.125 C122.736875 145.26132812 121.97375 144.39765625 121.1875 143.5078125 C120.1046875 142.26644531 120.1046875 142.26644531 119 141 C118.401875 140.31679688 117.80375 139.63359375 117.1875 138.9296875 C116.05814431 137.63824835 114.93055156 136.3452655 113.8046875 135.05078125 C111.77041859 132.73911203 109.6977769 130.4646857 107.625 128.1875 C103.74917635 123.89337498 100.07811944 119.46654588 96.4375 114.97265625 C92.22877517 109.83990049 87.88093473 104.82654106 83.54833984 99.79833984 C81.02707074 96.86997841 78.51384351 93.93473555 76 91 C72.98972957 87.48703601 69.97870979 83.97472375 66.96484375 80.46484375 C61.6672344 74.29340193 56.38984001 68.10598459 51.14208984 61.89208984 C46.80193524 56.75688724 42.42749506 51.65147414 38.046875 46.55078125 C35.9903355 44.15611701 33.93862686 41.75743831 31.890625 39.35546875 C27.40292168 34.09678466 22.90612655 28.86135677 18.25 23.75 C14.60978112 19.74115136 11.20846861 15.58893301 7.86328125 11.33203125 C6.13138052 9.16443222 4.33730763 7.07826601 2.5 5 C0 2 0 2 0 0 Z " fill="#168FE6" transform="translate(328,360)"/>
<path d="M0 0 C-11.83849149 5.01578192 -24.10591909 8.99516078 -36.26953125 13.13671875 C-53.97992293 19.18433184 -71.46319654 25.72071707 -88.6953125 33.02734375 C-89.45585938 33.34832031 -90.21640625 33.66929687 -91 34 C-91.75410156 34.36996094 -92.50820313 34.73992187 -93.28515625 35.12109375 C-96.96478316 36.31233987 -100.49238729 36.21376044 -104.3125 36.125 C-105.05306641 36.11597656 -105.79363281 36.10695312 -106.55664062 36.09765625 C-108.37123467 36.07424213 -110.18566071 36.03837615 -112 36 C-112 35.34 -112 34.68 -112 34 C-110.99582031 33.98582031 -109.99164062 33.97164062 -108.95703125 33.95703125 C-107.57548 33.91003971 -106.19397105 33.86179311 -104.8125 33.8125 C-104.15830078 33.80669922 -103.50410156 33.80089844 -102.83007812 33.79492188 C-95.66550828 33.48932411 -89.55867315 30.70931693 -83 28 C-80.40065699 26.95981435 -77.7959649 25.93329479 -75.19140625 24.90625 C-74.50551926 24.63481674 -73.81963226 24.36338348 -73.11296082 24.08372498 C-51.95999066 15.71694073 -30.57984044 8.18644707 -9 1 C-7.91444824 0.5968457 -6.82889648 0.19369141 -5.71044922 -0.22167969 C-3 -1 -3 -1 0 0 Z " fill="#37B9F6" transform="translate(1078,218)"/>
<path d="M0 0 C24.42 0 48.84 0 74 0 C72.04783565 3.90432869 70.12613393 6.03839944 67 9 C66.79913557 5.28400809 66.8480563 4.22791555 69 1 C68.34805664 1.0707373 67.69611328 1.14147461 67.02441406 1.21435547 C59.91323598 1.93050774 52.89415865 2.15502423 45.75 2.125 C44.04203247 2.12209961 44.04203247 2.12209961 42.29956055 2.11914062 C28.19222034 2.05056129 14.09605135 1.53531111 0 1 C0 0.67 0 0.34 0 0 Z " fill="#28A9F1" transform="translate(1101,359)"/>
<path d="M0 0 C0.99 0.33 1.98 0.66 3 1 C1.4375 2.20442708 -0.125 3.40885417 -1.6875 4.61328125 C-3.34370205 6.04491137 -3.34370205 6.04491137 -3 9 C-4.7578125 10.6484375 -4.7578125 10.6484375 -7.125 12.375 C-9.98784301 14.49062298 -12.73483098 16.61318053 -15.375 19 C-16.24125 19.66 -17.1075 20.32 -18 21 C-18.99 20.67 -19.98 20.34 -21 20 C-18.08468718 15.16258143 -14.87068126 11.85562596 -10.5 8.3125 C-9.93152344 7.84005859 -9.36304688 7.36761719 -8.77734375 6.88085938 C-7.19640855 5.57319488 -5.59873034 4.28584751 -4 3 C-3.2678125 2.37480469 -2.535625 1.74960937 -1.78125 1.10546875 C-1.1934375 0.74066406 -0.605625 0.37585938 0 0 Z " fill="#0B3995" transform="translate(706,656)"/>
<path d="M0 0 C0.66 0.33 1.32 0.66 2 1 C0.37660195 2.70884005 -1.29319053 4.37446717 -3 6 C-3.66 6 -4.32 6 -5 6 C-5 6.66 -5 7.32 -5 8 C-8.46153846 11 -8.46153846 11 -11 11 C-11.36158203 11.84691406 -11.36158203 11.84691406 -11.73046875 12.7109375 C-13.25784631 15.46491673 -15.09244216 17.39374859 -17.3125 19.625 C-18.07175781 20.40101563 -18.83101562 21.17703125 -19.61328125 21.9765625 C-22.01896354 24.01607711 -24.02402174 25.02029742 -27 26 C-27.66 25.34 -28.32 24.68 -29 24 C-27.99582031 23.18917969 -26.99164062 22.37835937 -25.95703125 21.54296875 C-17.21210241 14.46778013 -8.55196296 7.30724232 0 0 Z " fill="#196AC8" transform="translate(892,504)"/>
<path d="M0 0 C0.66 0.33 1.32 0.66 2 1 C1.30132812 1.44730469 0.60265625 1.89460937 -0.1171875 2.35546875 C-1.02726562 2.96003906 -1.93734375 3.56460938 -2.875 4.1875 C-3.77992188 4.77917969 -4.68484375 5.37085938 -5.6171875 5.98046875 C-8.18328555 7.78803242 -8.18328555 7.78803242 -8.78125 10.53125 C-10.23893354 13.48399359 -10.93090939 13.64803196 -13.9140625 14.80078125 C-15.47795045 15.32428611 -17.04871834 15.82758868 -18.625 16.3125 C-19.42679687 16.57611328 -20.22859375 16.83972656 -21.0546875 17.11132812 C-23.03084662 17.75828498 -25.01475915 18.38147207 -27 19 C-27 18.34 -27 17.68 -27 17 C-25.05981445 15.53540039 -25.05981445 15.53540039 -22.36328125 13.84765625 C-21.39326172 13.23599609 -20.42324219 12.62433594 -19.42382812 11.99414062 C-18.39708984 11.35669922 -17.37035156 10.71925781 -16.3125 10.0625 C-15.30509766 9.42892578 -14.29769531 8.79535156 -13.25976562 8.14257812 C-10.51262677 6.41813651 -7.76147055 4.70139107 -5 3 C-4.10692139 2.41661865 -3.21384277 1.8332373 -2.29370117 1.23217773 C-1.53677979 0.82555908 -0.7798584 0.41894043 0 0 Z " fill="#162F82" transform="translate(405,634)"/>
<path d="M0 0 C0.66 0.33 1.32 0.66 2 1 C-3.26593871 4.83295096 -8.56385565 8.37825916 -14.25 11.5625 C-17.76840399 13.55311681 -20.61528282 15.36130933 -23.3125 18.375 C-26.54526586 21.53258526 -28.56204863 21.82248195 -33 22 C-33 21.34 -33 20.68 -33 20 C-31.1550293 18.69067383 -31.1550293 18.69067383 -28.57421875 17.20703125 C-27.63674805 16.66191895 -26.69927734 16.11680664 -25.73339844 15.55517578 C-24.22567871 14.69255127 -24.22567871 14.69255127 -22.6875 13.8125 C-20.66441965 12.64095315 -18.6422734 11.46779169 -16.62109375 10.29296875 C-15.64769043 9.72755371 -14.67428711 9.16213867 -13.67138672 8.57958984 C-9.62537981 6.18718766 -5.71385529 3.62136602 -1.828125 0.9765625 C-1.22484375 0.65429688 -0.6215625 0.33203125 0 0 Z " fill="#1C4BA4" transform="translate(546,547)"/>
<path d="M0 0 C0.66 0.33 1.32 0.66 2 1 C-0.72737031 3.81454653 -3.54801743 6.32449582 -6.625 8.75 C-7.50414062 9.44609375 -8.38328125 10.1421875 -9.2890625 10.859375 C-10.18367187 11.56578125 -11.07828125 12.2721875 -12 13 C-13.66767362 14.33207367 -15.33435907 15.6653855 -17 17 C-22 21 -27 25 -32 29 C-32.66 28.67 -33.32 28.34 -34 28 C-25.88395491 20.93238019 -17.66532672 14.06282091 -9.15625 7.47265625 C-6.04126481 5.05429151 -3.01671189 2.53967161 0 0 Z " fill="#2494E9" transform="translate(1014,405)"/>
<path d="M0 0 C-0.53778076 0.32162109 -1.07556152 0.64324219 -1.62963867 0.97460938 C-4.149428 2.48223538 -6.66849186 3.99106914 -9.1875 5.5 C-10.09628906 6.04374268 -11.00507812 6.58748535 -11.94140625 7.14770508 C-16.00648225 9.58437554 -20.06618019 12.02579783 -24.08203125 14.54296875 C-24.96242065 15.09404297 -24.96242065 15.09404297 -25.8605957 15.65625 C-27.39954719 16.62431122 -28.93430121 17.59903616 -30.46875 18.57421875 C-32.71412058 19.83897224 -34.48179662 20.55456308 -37 21 C-34.24699666 18.05755889 -31.56115498 15.95732377 -28.078125 13.94140625 C-27.13453125 13.39033203 -26.1909375 12.83925781 -25.21875 12.27148438 C-23.74921875 11.42553711 -23.74921875 11.42553711 -22.25 10.5625 C-20.3171592 9.43974689 -18.38485843 8.31606355 -16.453125 7.19140625 C-15.52693359 6.65660645 -14.60074219 6.12180664 -13.64648438 5.57080078 C-10.57041858 3.7450252 -7.59546183 1.79066218 -4.64746094 -0.23461914 C-3 -1 -3 -1 0 0 Z " fill="#1B53B0" transform="translate(585,526)"/>
<path d="M0 0 C0.66 0.33 1.32 0.66 2 1 C-4.12426075 6.71503595 -10.43158619 12.02657537 -17.08837891 17.10473633 C-19.83823421 19.21985885 -22.29369512 21.29746044 -24.7421875 23.77734375 C-27.22324175 26.21976566 -28.58528345 26.70731001 -32 27 C-28.05386809 22.88627175 -23.82202345 19.31005172 -19.375 15.75 C-17.9555979 14.60563154 -16.5363278 13.46109935 -15.1171875 12.31640625 C-14.42206055 11.75711426 -13.72693359 11.19782227 -13.01074219 10.62158203 C-10.16215847 8.32431479 -7.33048729 6.00702919 -4.5 3.6875 C-3.6234375 2.96949219 -2.746875 2.25148438 -1.84375 1.51171875 C-0.93109375 0.76341797 -0.93109375 0.76341797 0 0 Z " fill="#2486DE" transform="translate(950,457)"/>
<path d="M0 0 C-1.46818668 3.10742423 -3.20025 5.90471739 -5.125 8.75 C-5.93324219 9.94882813 -5.93324219 9.94882813 -6.7578125 11.171875 C-7.16773438 11.77515625 -7.57765625 12.3784375 -8 13 C-8.66 11.68 -9.32 10.36 -10 9 C-9.195625 8.236875 -8.39125 7.47375 -7.5625 6.6875 C-4.83200976 4.20569102 -4.83200976 4.20569102 -4 1 C-4.99 1.33 -5.98 1.66 -7 2 C-11.12970595 3.1775129 -14.71521776 3.29049371 -19 3 C-19.66 2.34 -20.32 1.68 -21 1 C-13.98441385 0.4011085 -7.04321257 -0.13810221 0 0 Z " fill="#42BFF9" transform="translate(1191,195)"/>
<path d="M0 0 C11.55 0 23.1 0 35 0 C33.04783565 3.90432869 31.12613393 6.03839944 28 9 C27.79913557 5.28400809 27.8480563 4.22791555 30 1 C20.1 1 10.2 1 0 1 C0 0.67 0 0.34 0 0 Z " fill="#5ABFF5" transform="translate(1140,359)"/>
<path d="M0 0 C-3.26556587 1.20235238 -6.53815915 2.38427591 -9.8125 3.5625 C-10.74126953 3.90474609 -11.67003906 4.24699219 -12.62695312 4.59960938 C-13.9659668 5.07817383 -13.9659668 5.07817383 -15.33203125 5.56640625 C-16.15421143 5.86490479 -16.9763916 6.16340332 -17.82348633 6.47094727 C-20 7 -20 7 -23 6 C-22.67 5.67 -22.34 5.34 -22 5 C-22.66 4.34 -23.32 3.68 -24 3 C-20.70857495 1.66775653 -18.65953458 0.87096063 -15.125 1.5625 C-11.32413335 2.09462133 -9.33800797 1.18156194 -5.9296875 -0.40625 C-3.5776859 -1.1299428 -2.32644178 -0.66487034 0 0 Z " fill="#022C87" transform="translate(473,619)"/>
<path d="M0 0 C0 3.63464315 -0.62548537 4.02840882 -3.0625 6.57421875 C-3.69414063 7.24130859 -4.32578125 7.90839844 -4.9765625 8.59570312 C-5.64429688 9.28599609 -6.31203125 9.97628906 -7 10.6875 C-8.00160156 11.7403418 -8.00160156 11.7403418 -9.0234375 12.81445312 C-10.67577321 14.54940562 -12.3347315 16.27747207 -14 18 C-14.66 17.67 -15.32 17.34 -16 17 C-15.54625 16.608125 -15.0925 16.21625 -14.625 15.8125 C-12.85468909 14.084241 -12.85468909 14.084241 -12.25 11.6875 C-10.61104598 8.16374886 -8.42521601 6.56383108 -5.375 4.1875 C-4.37210938 3.39730469 -3.36921875 2.60710938 -2.3359375 1.79296875 C-1.17964844 0.90544922 -1.17964844 0.90544922 0 0 Z " fill="#0F5BBD" transform="translate(837,549)"/>
<path d="M0 0 C0.66 0.33 1.32 0.66 2 1 C1.50628906 1.47050781 1.01257813 1.94101562 0.50390625 2.42578125 C-0.13675781 3.04839844 -0.77742187 3.67101562 -1.4375 4.3125 C-2.07558594 4.92738281 -2.71367188 5.54226563 -3.37109375 6.17578125 C-5.2221418 8.00644056 -5.2221418 8.00644056 -6 11 C-8.4375 12.125 -8.4375 12.125 -11 13 C-11.99 13.495 -11.99 13.495 -13 14 C-12.75722624 10.64815577 -11.78030433 9.79196679 -9.27734375 7.421875 C-8.17185454 6.52159636 -7.05823943 5.6312214 -5.9375 4.75 C-5.36966797 4.29109375 -4.80183594 3.8321875 -4.21679688 3.359375 C-2.8180802 2.23099852 -1.40992986 1.1143337 0 0 Z " fill="#0F47A7" transform="translate(750,620)"/>
<path d="M0 0 C-2.78556882 1.36698387 -5.57931328 2.71634538 -8.375 4.0625 C-9.1690625 4.45244141 -9.963125 4.84238281 -10.78125 5.24414062 C-11.54179688 5.60830078 -12.30234375 5.97246094 -13.0859375 6.34765625 C-14.1385376 6.85824585 -14.1385376 6.85824585 -15.21240234 7.37915039 C-15.80230957 7.58403076 -16.3922168 7.78891113 -17 8 C-17.66 7.67 -18.32 7.34 -19 7 C-19 6.34 -19 5.68 -19 5 C-17.77023437 4.60167969 -17.77023437 4.60167969 -16.515625 4.1953125 C-15.43796875 3.84210938 -14.3603125 3.48890625 -13.25 3.125 C-12.18265625 2.77695312 -11.1153125 2.42890625 -10.015625 2.0703125 C-7.07508307 1.11460469 -7.07508307 1.11460469 -4.796875 -0.1953125 C-3 -1 -3 -1 0 0 Z " fill="#1C9EF1" transform="translate(769,368)"/>
<path d="M0 0 C0.66 0.33 1.32 0.66 2 1 C-5.09906106 5.91567287 -12.14793144 10.38665872 -20 14 C-20 13.34 -20 12.68 -20 12 C-16.88380388 9.67782246 -13.46609539 7.79299924 -10.125 5.8125 C-9.18785156 5.24080078 -8.25070312 4.66910156 -7.28515625 4.08007812 C-6.38925781 3.54447266 -5.49335938 3.00886719 -4.5703125 2.45703125 C-3.74289551 1.96178955 -2.91547852 1.46654785 -2.06298828 0.95629883 C-1.38220215 0.64072021 -0.70141602 0.3251416 0 0 Z " fill="#1B469F" transform="translate(509,570)"/>
<path d="M0 0 C0.66 0.33 1.32 0.66 2 1 C0.35 2.65 -1.3 4.3 -3 6 C-2.236875 6.144375 -1.47375 6.28875 -0.6875 6.4375 C2 7 2 7 5 8 C5 8.66 5 9.32 5 10 C0.61110675 9.33501617 -2.9811485 7.81242323 -7 6 C-7 5.34 -7 4.68 -7 4 C-1.7265625 0.77734375 -1.7265625 0.77734375 0 0 Z " fill="#1D3280" transform="translate(433,674)"/>
<path d="M0 0 C2.44009082 0.25511405 4.87577058 0.52832678 7.3125 0.8125 C8.00279297 0.88275391 8.69308594 0.95300781 9.40429688 1.02539062 C12.4277352 1.39054018 14.56107971 1.65111464 16.98046875 3.57421875 C17.31691406 4.04472656 17.65335937 4.51523437 18 5 C12.12586797 5.47628098 6.48393811 4.03662438 1 2 C0.67 1.34 0.34 0.68 0 0 Z " fill="#152A71" transform="translate(448,686)"/>
<path d="M0 0 C0.66 0.33 1.32 0.66 2 1 C0.28147846 2.65832814 -1.44835014 4.30104705 -3.1875 5.9375 C-3.67025391 6.40607422 -4.15300781 6.87464844 -4.65039062 7.35742188 C-7.66789129 10.17240572 -9.85409804 11.64377076 -14 12 C-9.73412126 7.45890328 -4.96387672 3.75264754 0 0 Z " fill="#1C7BD7" transform="translate(932,472)"/>
<path d="M0 0 C0 0.99 0 1.98 0 3 C-1.79296875 4.68359375 -1.79296875 4.68359375 -4.1875 6.4375 C-5.00476562 7.0459375 -5.82203125 7.654375 -6.6640625 8.28125 C-7.43492188 8.8484375 -8.20578125 9.415625 -9 10 C-10.66998649 11.32917292 -12.33857487 12.66014102 -14 14 C-14.66 13.67 -15.32 13.34 -16 13 C-13.71046156 11.01832378 -11.41850202 9.03957953 -9.125 7.0625 C-8.47402344 6.49853516 -7.82304688 5.93457031 -7.15234375 5.35351562 C-6.21455078 4.54624023 -6.21455078 4.54624023 -5.2578125 3.72265625 C-4.6817627 3.22515869 -4.10571289 2.72766113 -3.51220703 2.21508789 C-2 1 -2 1 0 0 Z " fill="#249FED" transform="translate(1038,386)"/>
<path d="M0 0 C-2.88406243 3.40843742 -4.3708265 4.86591384 -8.8125 5.8125 C-10.3903125 5.9053125 -10.3903125 5.9053125 -12 6 C-12 5.34 -12 4.68 -12 4 C-10.56988027 3.13353333 -9.13059381 2.28218171 -7.6875 1.4375 C-6.48673828 0.72400391 -6.48673828 0.72400391 -5.26171875 -0.00390625 C-3 -1 -3 -1 0 0 Z " fill="#0F3D9B" transform="translate(525,563)"/>
<path d="M0 0 C2 1 2 1 2 1 Z M-2 1 C-1.34 1.33 -0.68 1.66 0 2 C-3.96570677 6.38808974 -7.01191871 9.68554313 -13 11 C-9.50640535 7.40365256 -5.88901869 4.16548033 -2 1 Z " fill="#1952AE" transform="translate(795,584)"/>
<path d="M0 0 C0.66 0.33 1.32 0.66 2 1 C1.34 2.65 0.68 4.3 0 6 C0.804375 6.28875 1.60875 6.5775 2.4375 6.875 C5 8 5 8 6 10 C2.40608886 8.66511872 -0.75490696 7.03977277 -4 5 C-3 2 -3 2 0 0 Z " fill="#102E84" transform="translate(622,725)"/>
<path d="M0 0 C2.31 0 4.62 0 7 0 C7.33 1.65 7.66 3.3 8 5 C7.34 5 6.68 5 6 5 C5.67 5.66 5.34 6.32 5 7 C3.35 4.69 1.7 2.38 0 0 Z " fill="#1BABF6" transform="translate(328,361)"/>
<path d="M0 0 C-4.95 1.65 -9.9 3.3 -15 5 C-15.33 4.01 -15.66 3.02 -16 2 C-15.01 2 -14.02 2 -13 2 C-10.72088016 1.25708248 -8.49399942 0.4114211 -6.25390625 -0.44140625 C-4 -1 -4 -1 0 0 Z " fill="#0C3590" transform="translate(473,619)"/>
<path d="M0 0 C1.32 0 2.64 0 4 0 C2.55746343 3.36591866 0.66735273 5.51047079 -2 8 C-2.20086443 4.28400809 -2.1519437 3.22791555 0 0 Z " fill="#20A2F2" transform="translate(1170,360)"/>
<path d="M0 0 C0.99 1.32 1.98 2.64 3 4 C0.36 6.31 -2.28 8.62 -5 11 C-5.66 10.67 -6.32 10.34 -7 10 C-6.21625 9.46375 -5.4325 8.9275 -4.625 8.375 C-1.66573701 5.69757158 -0.95391744 3.81566975 0 0 Z " fill="#2092EA" transform="translate(907,320)"/>
<path d="M0 0 C0.99 0.33 1.98 0.66 3 1 C0.36 3.97 -2.28 6.94 -5 10 C-5 6.40142046 -4.04169485 4.90548882 -2 2 C-1.34 2 -0.68 2 0 2 C0 1.34 0 0.68 0 0 Z " fill="#1A84E0" transform="translate(1137,403)"/>
<path d="M0 0 C2 1 2 1 3 3 C-1.75 5.875 -1.75 5.875 -4 7 C-4.66 6.34 -5.32 5.68 -6 5 C-4.02 3.35 -2.04 1.7 0 0 Z " fill="#1A56B1" transform="translate(778,597)"/>
<path d="M0 0 C0.99 0.33 1.98 0.66 3 1 C1.02 3.31 -0.96 5.62 -3 8 C-3.33 6.68 -3.66 5.36 -4 4 C-2.0625 1.75 -2.0625 1.75 0 0 Z " fill="#1B84E1" transform="translate(1124,419)"/>
<path d="M0 0 C0.66 0.33 1.32 0.66 2 1 C-1.96 4.465 -1.96 4.465 -6 8 C-6.66 7.67 -7.32 7.34 -8 7 C-5.36 4.69 -2.72 2.38 0 0 Z " fill="#18398F" transform="translate(490,634)"/>
<path d="M0 0 C-1 3 -1 3 -3.9375 4.75 C-5.4534375 5.36875 -5.4534375 5.36875 -7 6 C-7.66 5.67 -8.32 5.34 -9 5 C-7.87926138 4.16094435 -6.75325453 3.32892169 -5.625 2.5 C-4.99851562 2.0359375 -4.37203125 1.571875 -3.7265625 1.09375 C-2 0 -2 0 0 0 Z " fill="#2755AB" transform="translate(557,541)"/>
</svg>
